<mxfile host="Electron" modified="2024-11-26T03:00:36.700Z" agent="Mozilla/5.0 (Windows NT 10.0; Win64; x64) AppleWebKit/537.36 (KHTML, like Gecko) draw.io/24.6.4 Chrome/124.0.6367.207 Electron/30.0.6 Safari/537.36" etag="OovaODe2j50JCyk9e2Ot" version="24.6.4" type="device" pages="2">
  <diagram name="Страница — 1" id="E0iMoILbe8W1-IbeNVy6">
    <mxGraphModel dx="695" dy="1986" grid="1" gridSize="10" guides="1" tooltips="1" connect="1" arrows="1" fold="1" page="1" pageScale="1" pageWidth="827" pageHeight="1169" math="0" shadow="0">
      <root>
        <mxCell id="0" />
        <mxCell id="1" parent="0" />
        <mxCell id="HoVtf0Y32PY_F5ihR-nj-8" style="edgeStyle=orthogonalEdgeStyle;rounded=0;orthogonalLoop=1;jettySize=auto;html=1;exitX=0.5;exitY=1;exitDx=0;exitDy=0;entryX=0.5;entryY=0;entryDx=0;entryDy=0;" edge="1" parent="1" source="HoVtf0Y32PY_F5ihR-nj-2" target="HoVtf0Y32PY_F5ihR-nj-3">
          <mxGeometry relative="1" as="geometry" />
        </mxCell>
        <mxCell id="HoVtf0Y32PY_F5ihR-nj-2" value="" style="ellipse;whiteSpace=wrap;html=1;aspect=fixed;fillColor=#000000;" vertex="1" parent="1">
          <mxGeometry x="270" y="30" width="15" height="15" as="geometry" />
        </mxCell>
        <mxCell id="HoVtf0Y32PY_F5ihR-nj-9" style="edgeStyle=orthogonalEdgeStyle;rounded=0;orthogonalLoop=1;jettySize=auto;html=1;exitX=0.5;exitY=1;exitDx=0;exitDy=0;entryX=0.5;entryY=0;entryDx=0;entryDy=0;" edge="1" parent="1" source="HoVtf0Y32PY_F5ihR-nj-3" target="HoVtf0Y32PY_F5ihR-nj-4">
          <mxGeometry relative="1" as="geometry" />
        </mxCell>
        <mxCell id="HoVtf0Y32PY_F5ihR-nj-3" value="Idle&amp;nbsp;" style="rounded=1;whiteSpace=wrap;html=1;" vertex="1" parent="1">
          <mxGeometry x="217.5" y="120" width="120" height="60" as="geometry" />
        </mxCell>
        <mxCell id="HoVtf0Y32PY_F5ihR-nj-12" style="edgeStyle=orthogonalEdgeStyle;rounded=0;orthogonalLoop=1;jettySize=auto;html=1;exitX=0.5;exitY=1;exitDx=0;exitDy=0;entryX=0.5;entryY=0;entryDx=0;entryDy=0;" edge="1" parent="1" source="HoVtf0Y32PY_F5ihR-nj-4" target="HoVtf0Y32PY_F5ihR-nj-5">
          <mxGeometry relative="1" as="geometry" />
        </mxCell>
        <mxCell id="HoVtf0Y32PY_F5ihR-nj-13" style="edgeStyle=orthogonalEdgeStyle;rounded=0;orthogonalLoop=1;jettySize=auto;html=1;exitX=1;exitY=0.5;exitDx=0;exitDy=0;entryX=0.5;entryY=0;entryDx=0;entryDy=0;" edge="1" parent="1" source="HoVtf0Y32PY_F5ihR-nj-4" target="HoVtf0Y32PY_F5ihR-nj-7">
          <mxGeometry relative="1" as="geometry" />
        </mxCell>
        <mxCell id="HoVtf0Y32PY_F5ihR-nj-4" value="RoomSelected" style="rounded=1;whiteSpace=wrap;html=1;" vertex="1" parent="1">
          <mxGeometry x="217.5" y="330" width="120" height="60" as="geometry" />
        </mxCell>
        <mxCell id="HoVtf0Y32PY_F5ihR-nj-10" style="edgeStyle=orthogonalEdgeStyle;rounded=0;orthogonalLoop=1;jettySize=auto;html=1;exitX=0.5;exitY=1;exitDx=0;exitDy=0;" edge="1" parent="1" source="HoVtf0Y32PY_F5ihR-nj-5" target="HoVtf0Y32PY_F5ihR-nj-6">
          <mxGeometry relative="1" as="geometry" />
        </mxCell>
        <mxCell id="HoVtf0Y32PY_F5ihR-nj-11" style="edgeStyle=orthogonalEdgeStyle;rounded=0;orthogonalLoop=1;jettySize=auto;html=1;exitX=1;exitY=0.5;exitDx=0;exitDy=0;entryX=0;entryY=0.5;entryDx=0;entryDy=0;" edge="1" parent="1" source="HoVtf0Y32PY_F5ihR-nj-5" target="HoVtf0Y32PY_F5ihR-nj-7">
          <mxGeometry relative="1" as="geometry" />
        </mxCell>
        <mxCell id="HoVtf0Y32PY_F5ihR-nj-5" value="BookingConfirmed" style="rounded=1;whiteSpace=wrap;html=1;" vertex="1" parent="1">
          <mxGeometry x="217.5" y="570" width="120" height="60" as="geometry" />
        </mxCell>
        <mxCell id="HoVtf0Y32PY_F5ihR-nj-20" style="edgeStyle=orthogonalEdgeStyle;rounded=0;orthogonalLoop=1;jettySize=auto;html=1;exitX=0.5;exitY=1;exitDx=0;exitDy=0;entryX=0.5;entryY=0;entryDx=0;entryDy=0;" edge="1" parent="1" source="HoVtf0Y32PY_F5ihR-nj-6" target="HoVtf0Y32PY_F5ihR-nj-19">
          <mxGeometry relative="1" as="geometry" />
        </mxCell>
        <mxCell id="HoVtf0Y32PY_F5ihR-nj-6" value="Paid" style="rounded=1;whiteSpace=wrap;html=1;" vertex="1" parent="1">
          <mxGeometry x="217.5" y="810" width="120" height="60" as="geometry" />
        </mxCell>
        <mxCell id="HoVtf0Y32PY_F5ihR-nj-21" style="edgeStyle=orthogonalEdgeStyle;rounded=0;orthogonalLoop=1;jettySize=auto;html=1;exitX=0.5;exitY=1;exitDx=0;exitDy=0;entryX=1;entryY=0.5;entryDx=0;entryDy=0;" edge="1" parent="1" source="HoVtf0Y32PY_F5ihR-nj-7" target="HoVtf0Y32PY_F5ihR-nj-19">
          <mxGeometry relative="1" as="geometry" />
        </mxCell>
        <mxCell id="HoVtf0Y32PY_F5ihR-nj-7" value="BookingCancelled" style="rounded=1;whiteSpace=wrap;html=1;" vertex="1" parent="1">
          <mxGeometry x="560" y="570" width="120" height="60" as="geometry" />
        </mxCell>
        <mxCell id="HoVtf0Y32PY_F5ihR-nj-14" value="Выбор номера&amp;nbsp;" style="text;html=1;align=center;verticalAlign=middle;resizable=0;points=[];autosize=1;strokeColor=none;fillColor=none;" vertex="1" parent="1">
          <mxGeometry x="280" y="200" width="110" height="30" as="geometry" />
        </mxCell>
        <mxCell id="HoVtf0Y32PY_F5ihR-nj-15" value="Подтверждение&amp;nbsp;&lt;div&gt;бронирования&lt;/div&gt;" style="text;whiteSpace=wrap;html=1;" vertex="1" parent="1">
          <mxGeometry x="280" y="410" width="100" height="40" as="geometry" />
        </mxCell>
        <mxCell id="HoVtf0Y32PY_F5ihR-nj-16" value="Оплата" style="text;html=1;align=center;verticalAlign=middle;resizable=0;points=[];autosize=1;strokeColor=none;fillColor=none;" vertex="1" parent="1">
          <mxGeometry x="285" y="640" width="60" height="30" as="geometry" />
        </mxCell>
        <mxCell id="HoVtf0Y32PY_F5ihR-nj-17" value="Отмена бронирования" style="text;html=1;align=center;verticalAlign=middle;resizable=0;points=[];autosize=1;strokeColor=none;fillColor=none;" vertex="1" parent="1">
          <mxGeometry x="380" y="330" width="150" height="30" as="geometry" />
        </mxCell>
        <mxCell id="HoVtf0Y32PY_F5ihR-nj-18" value="Отмена бронирования" style="text;whiteSpace=wrap;html=1;" vertex="1" parent="1">
          <mxGeometry x="360" y="570" width="160" height="40" as="geometry" />
        </mxCell>
        <mxCell id="HoVtf0Y32PY_F5ihR-nj-19" value="" style="ellipse;html=1;shape=endState;fillColor=#000000;strokeColor=#ff0000;" vertex="1" parent="1">
          <mxGeometry x="262.5" y="990" width="30" height="30" as="geometry" />
        </mxCell>
        <mxCell id="HoVtf0Y32PY_F5ihR-nj-22" value="Начало&amp;nbsp;" style="text;html=1;align=center;verticalAlign=middle;resizable=0;points=[];autosize=1;strokeColor=none;fillColor=none;" vertex="1" parent="1">
          <mxGeometry x="242.5" y="-2" width="70" height="30" as="geometry" />
        </mxCell>
        <mxCell id="HoVtf0Y32PY_F5ihR-nj-23" value="Конец&amp;nbsp;" style="text;html=1;align=center;verticalAlign=middle;resizable=0;points=[];autosize=1;strokeColor=none;fillColor=none;" vertex="1" parent="1">
          <mxGeometry x="252.5" y="1040" width="60" height="30" as="geometry" />
        </mxCell>
      </root>
    </mxGraphModel>
  </diagram>
  <diagram id="j7TYZ7RGn038ruUaLHpm" name="Страница — 2">
    <mxGraphModel dx="695" dy="817" grid="1" gridSize="10" guides="1" tooltips="1" connect="1" arrows="1" fold="1" page="1" pageScale="1" pageWidth="827" pageHeight="1169" math="0" shadow="0">
      <root>
        <mxCell id="0" />
        <mxCell id="1" parent="0" />
        <mxCell id="RcRbr25HaMuxVKBR-zyU-20" style="edgeStyle=orthogonalEdgeStyle;rounded=0;orthogonalLoop=1;jettySize=auto;html=1;exitX=1;exitY=0.3333333333333333;exitDx=0;exitDy=0;exitPerimeter=0;entryX=0;entryY=0.5;entryDx=0;entryDy=0;" edge="1" parent="1" source="RcRbr25HaMuxVKBR-zyU-7" target="RcRbr25HaMuxVKBR-zyU-10">
          <mxGeometry relative="1" as="geometry" />
        </mxCell>
        <mxCell id="RcRbr25HaMuxVKBR-zyU-21" style="edgeStyle=orthogonalEdgeStyle;rounded=0;orthogonalLoop=1;jettySize=auto;html=1;exitX=1;exitY=0.3333333333333333;exitDx=0;exitDy=0;exitPerimeter=0;entryX=0;entryY=0.5;entryDx=0;entryDy=0;" edge="1" parent="1" source="RcRbr25HaMuxVKBR-zyU-7" target="RcRbr25HaMuxVKBR-zyU-11">
          <mxGeometry relative="1" as="geometry" />
        </mxCell>
        <mxCell id="RcRbr25HaMuxVKBR-zyU-22" style="edgeStyle=orthogonalEdgeStyle;rounded=0;orthogonalLoop=1;jettySize=auto;html=1;exitX=1;exitY=0.3333333333333333;exitDx=0;exitDy=0;exitPerimeter=0;entryX=0;entryY=0.5;entryDx=0;entryDy=0;" edge="1" parent="1" source="RcRbr25HaMuxVKBR-zyU-7" target="RcRbr25HaMuxVKBR-zyU-12">
          <mxGeometry relative="1" as="geometry" />
        </mxCell>
        <mxCell id="RcRbr25HaMuxVKBR-zyU-23" style="edgeStyle=orthogonalEdgeStyle;rounded=0;orthogonalLoop=1;jettySize=auto;html=1;exitX=1;exitY=0.3333333333333333;exitDx=0;exitDy=0;exitPerimeter=0;entryX=0;entryY=0.5;entryDx=0;entryDy=0;" edge="1" parent="1" source="RcRbr25HaMuxVKBR-zyU-7" target="RcRbr25HaMuxVKBR-zyU-13">
          <mxGeometry relative="1" as="geometry" />
        </mxCell>
        <mxCell id="RcRbr25HaMuxVKBR-zyU-7" value="Студент" style="shape=umlActor;verticalLabelPosition=bottom;verticalAlign=top;html=1;outlineConnect=0;" vertex="1" parent="1">
          <mxGeometry x="50" y="110" width="30" height="60" as="geometry" />
        </mxCell>
        <mxCell id="RcRbr25HaMuxVKBR-zyU-24" style="edgeStyle=orthogonalEdgeStyle;rounded=0;orthogonalLoop=1;jettySize=auto;html=1;exitX=1;exitY=0.3333333333333333;exitDx=0;exitDy=0;exitPerimeter=0;entryX=0;entryY=0.5;entryDx=0;entryDy=0;" edge="1" parent="1" source="RcRbr25HaMuxVKBR-zyU-8" target="RcRbr25HaMuxVKBR-zyU-14">
          <mxGeometry relative="1" as="geometry" />
        </mxCell>
        <mxCell id="RcRbr25HaMuxVKBR-zyU-25" style="edgeStyle=orthogonalEdgeStyle;rounded=0;orthogonalLoop=1;jettySize=auto;html=1;exitX=1;exitY=0.3333333333333333;exitDx=0;exitDy=0;exitPerimeter=0;entryX=0;entryY=0.5;entryDx=0;entryDy=0;" edge="1" parent="1" source="RcRbr25HaMuxVKBR-zyU-8" target="RcRbr25HaMuxVKBR-zyU-15">
          <mxGeometry relative="1" as="geometry" />
        </mxCell>
        <mxCell id="RcRbr25HaMuxVKBR-zyU-26" style="edgeStyle=orthogonalEdgeStyle;rounded=0;orthogonalLoop=1;jettySize=auto;html=1;exitX=1;exitY=0.3333333333333333;exitDx=0;exitDy=0;exitPerimeter=0;entryX=0;entryY=0.5;entryDx=0;entryDy=0;" edge="1" parent="1" source="RcRbr25HaMuxVKBR-zyU-8" target="RcRbr25HaMuxVKBR-zyU-13">
          <mxGeometry relative="1" as="geometry">
            <Array as="points">
              <mxPoint x="120" y="760" />
              <mxPoint x="120" y="560" />
            </Array>
          </mxGeometry>
        </mxCell>
        <mxCell id="RcRbr25HaMuxVKBR-zyU-27" style="edgeStyle=orthogonalEdgeStyle;rounded=0;orthogonalLoop=1;jettySize=auto;html=1;exitX=1;exitY=0.3333333333333333;exitDx=0;exitDy=0;exitPerimeter=0;entryX=0;entryY=0.5;entryDx=0;entryDy=0;" edge="1" parent="1" source="RcRbr25HaMuxVKBR-zyU-8" target="RcRbr25HaMuxVKBR-zyU-19">
          <mxGeometry relative="1" as="geometry" />
        </mxCell>
        <mxCell id="RcRbr25HaMuxVKBR-zyU-28" style="edgeStyle=orthogonalEdgeStyle;rounded=0;orthogonalLoop=1;jettySize=auto;html=1;exitX=1;exitY=0.3333333333333333;exitDx=0;exitDy=0;exitPerimeter=0;entryX=0;entryY=0.5;entryDx=0;entryDy=0;" edge="1" parent="1" source="RcRbr25HaMuxVKBR-zyU-8" target="RcRbr25HaMuxVKBR-zyU-16">
          <mxGeometry relative="1" as="geometry" />
        </mxCell>
        <mxCell id="RcRbr25HaMuxVKBR-zyU-8" value="Преподаватель" style="shape=umlActor;verticalLabelPosition=bottom;verticalAlign=top;html=1;outlineConnect=0;" vertex="1" parent="1">
          <mxGeometry x="40" y="740" width="30" height="60" as="geometry" />
        </mxCell>
        <mxCell id="RcRbr25HaMuxVKBR-zyU-29" style="edgeStyle=orthogonalEdgeStyle;rounded=0;orthogonalLoop=1;jettySize=auto;html=1;exitX=1;exitY=0.3333333333333333;exitDx=0;exitDy=0;exitPerimeter=0;entryX=0;entryY=0.5;entryDx=0;entryDy=0;" edge="1" parent="1" source="RcRbr25HaMuxVKBR-zyU-9" target="RcRbr25HaMuxVKBR-zyU-17">
          <mxGeometry relative="1" as="geometry" />
        </mxCell>
        <mxCell id="RcRbr25HaMuxVKBR-zyU-30" style="edgeStyle=orthogonalEdgeStyle;rounded=0;orthogonalLoop=1;jettySize=auto;html=1;exitX=1;exitY=0.3333333333333333;exitDx=0;exitDy=0;exitPerimeter=0;entryX=0;entryY=0.5;entryDx=0;entryDy=0;" edge="1" parent="1" source="RcRbr25HaMuxVKBR-zyU-9" target="RcRbr25HaMuxVKBR-zyU-18">
          <mxGeometry relative="1" as="geometry" />
        </mxCell>
        <mxCell id="RcRbr25HaMuxVKBR-zyU-32" style="edgeStyle=orthogonalEdgeStyle;rounded=0;orthogonalLoop=1;jettySize=auto;html=1;exitX=1;exitY=0.3333333333333333;exitDx=0;exitDy=0;exitPerimeter=0;entryX=0;entryY=1;entryDx=0;entryDy=0;" edge="1" parent="1" source="RcRbr25HaMuxVKBR-zyU-9" target="RcRbr25HaMuxVKBR-zyU-19">
          <mxGeometry relative="1" as="geometry">
            <Array as="points">
              <mxPoint x="120" y="1430" />
              <mxPoint x="120" y="1068" />
            </Array>
          </mxGeometry>
        </mxCell>
        <mxCell id="RcRbr25HaMuxVKBR-zyU-9" value="Администратор" style="shape=umlActor;verticalLabelPosition=bottom;verticalAlign=top;html=1;outlineConnect=0;" vertex="1" parent="1">
          <mxGeometry x="40" y="1410" width="30" height="60" as="geometry" />
        </mxCell>
        <mxCell id="RcRbr25HaMuxVKBR-zyU-10" value="Регистрация и авторизация" style="ellipse;whiteSpace=wrap;html=1;" vertex="1" parent="1">
          <mxGeometry x="420" y="60" width="120" height="80" as="geometry" />
        </mxCell>
        <mxCell id="RcRbr25HaMuxVKBR-zyU-11" value="Просмотр курсов" style="ellipse;whiteSpace=wrap;html=1;" vertex="1" parent="1">
          <mxGeometry x="380" y="230" width="120" height="80" as="geometry" />
        </mxCell>
        <mxCell id="RcRbr25HaMuxVKBR-zyU-12" value="Запись на курс" style="ellipse;whiteSpace=wrap;html=1;" vertex="1" parent="1">
          <mxGeometry x="330" y="390" width="120" height="80" as="geometry" />
        </mxCell>
        <mxCell id="RcRbr25HaMuxVKBR-zyU-13" value="Прохождение тестов" style="ellipse;whiteSpace=wrap;html=1;" vertex="1" parent="1">
          <mxGeometry x="250" y="520" width="120" height="80" as="geometry" />
        </mxCell>
        <mxCell id="RcRbr25HaMuxVKBR-zyU-14" value="Создание и редактирование курсов" style="ellipse;whiteSpace=wrap;html=1;" vertex="1" parent="1">
          <mxGeometry x="250" y="680" width="120" height="80" as="geometry" />
        </mxCell>
        <mxCell id="RcRbr25HaMuxVKBR-zyU-15" value="Добавление материалов курса" style="ellipse;whiteSpace=wrap;html=1;" vertex="1" parent="1">
          <mxGeometry x="280" y="860" width="120" height="80" as="geometry" />
        </mxCell>
        <mxCell id="RcRbr25HaMuxVKBR-zyU-16" value="Модерация отзывов" style="ellipse;whiteSpace=wrap;html=1;" vertex="1" parent="1">
          <mxGeometry x="270" y="1150" width="120" height="80" as="geometry" />
        </mxCell>
        <mxCell id="RcRbr25HaMuxVKBR-zyU-17" value="Управление учетными записями" style="ellipse;whiteSpace=wrap;html=1;" vertex="1" parent="1">
          <mxGeometry x="260" y="1300" width="120" height="80" as="geometry" />
        </mxCell>
        <mxCell id="RcRbr25HaMuxVKBR-zyU-18" value="Управление категориями курсов" style="ellipse;whiteSpace=wrap;html=1;" vertex="1" parent="1">
          <mxGeometry x="320" y="1470" width="120" height="80" as="geometry" />
        </mxCell>
        <mxCell id="RcRbr25HaMuxVKBR-zyU-19" value="Просмотр аналитики" style="ellipse;whiteSpace=wrap;html=1;" vertex="1" parent="1">
          <mxGeometry x="280" y="1000" width="120" height="80" as="geometry" />
        </mxCell>
      </root>
    </mxGraphModel>
  </diagram>
</mxfile>
